<svg xmlns="http://www.w3.org/2000/svg" viewBox="0 0 51 53" width="51" height="53">
	<style>
		tspan { white-space:pre }
		.shp0 { fill: #ffffff } 
	</style>
	<g id="Layer">
		<path id="Layer" class="shp0" d="M28 20L22 20L22 14C22 13.4 21.6 13 21 13C20.4 13 20 13.4 20 14L20 20L14 20C13.4 20 13 20.4 13 21C13 21.6 13.4 22 14 22L20 22L20 28C20 28.6 20.4 29 21 29C21.6 29 22 28.6 22 28L22 22L28 22C28.6 22 29 21.6 29 21C29 20.4 28.5 20 28 20Z" />
		<path id="Layer" fill-rule="evenodd" class="shp0" d="M50.7 52.7C50.5 52.9 50.3 53 50 53C49.8 53 49.5 52.9 49.3 52.7L34.4 37.2C30.7 40.2 26.1 42 21 42C9.4 42 0 32.6 0 21C0 9.4 9.4 0 21 0C32.6 0 42 9.4 42 21C42 26.8 39.6 32 35.8 35.8L50.7 51.3C51.1 51.7 51.1 52.3 50.7 52.7ZM21 40C31.5 40 40 31.5 40 21C40 10.5 31.5 2 21 2C10.5 2 2 10.5 2 21C2 31.5 10.5 40 21 40Z" />
	</g>
</svg>